<svg width="80" height="80" viewBox="0 0 80 80" fill="none" xmlns="http://www.w3.org/2000/svg">
<g clip-path="url(#clip0_6_7533)">
<rect width="80" height="80" rx="40" fill="#AA8CF8" fill-opacity="0.7"/>
<path d="M44.1366 18H29.25C27.7582 18 26.3274 18.5926 25.2725 19.6475C24.2176 20.7024 23.625 22.1332 23.625 23.625V57.375C23.625 58.8668 24.2176 60.2976 25.2725 61.3525C26.3274 62.4074 27.7582 63 29.25 63H51.75C53.2418 63 54.6726 62.4074 55.7275 61.3525C56.7824 60.2976 57.375 58.8668 57.375 57.375V31.2384C57.3748 30.4926 57.0784 29.7773 56.5509 29.25L46.125 18.8241C45.5977 18.2966 44.8824 18.0002 44.1366 18ZM44.7188 27.8438V22.2188L53.1562 30.6562H47.5312C46.7853 30.6562 46.07 30.3599 45.5425 29.8325C45.0151 29.305 44.7188 28.5897 44.7188 27.8438ZM30.6562 43.3125C30.2833 43.3125 29.9256 43.1643 29.6619 42.9006C29.3982 42.6369 29.25 42.2792 29.25 41.9062C29.25 41.5333 29.3982 41.1756 29.6619 40.9119C29.9256 40.6482 30.2833 40.5 30.6562 40.5H50.3438C50.7167 40.5 51.0744 40.6482 51.3381 40.9119C51.6018 41.1756 51.75 41.5333 51.75 41.9062C51.75 42.2792 51.6018 42.6369 51.3381 42.9006C51.0744 43.1643 50.7167 43.3125 50.3438 43.3125H30.6562ZM29.25 47.5312C29.25 47.1583 29.3982 46.8006 29.6619 46.5369C29.9256 46.2732 30.2833 46.125 30.6562 46.125H50.3438C50.7167 46.125 51.0744 46.2732 51.3381 46.5369C51.6018 46.8006 51.75 47.1583 51.75 47.5312C51.75 47.9042 51.6018 48.2619 51.3381 48.5256C51.0744 48.7893 50.7167 48.9375 50.3438 48.9375H30.6562C30.2833 48.9375 29.9256 48.7893 29.6619 48.5256C29.3982 48.2619 29.25 47.9042 29.25 47.5312ZM30.6562 54.5625C30.2833 54.5625 29.9256 54.4143 29.6619 54.1506C29.3982 53.8869 29.25 53.5292 29.25 53.1562C29.25 52.7833 29.3982 52.4256 29.6619 52.1619C29.9256 51.8982 30.2833 51.75 30.6562 51.75H41.9062C42.2792 51.75 42.6369 51.8982 42.9006 52.1619C43.1643 52.4256 43.3125 52.7833 43.3125 53.1562C43.3125 53.5292 43.1643 53.8869 42.9006 54.1506C42.6369 54.4143 42.2792 54.5625 41.9062 54.5625H30.6562Z" fill="white"/>
</g>
<defs>
<clipPath id="clip0_6_7533">
<rect width="80" height="80" fill="white"/>
</clipPath>
</defs>
</svg>
