<svg width="80" height="80" viewBox="0 0 80 80" fill="none" xmlns="http://www.w3.org/2000/svg">
<g clip-path="url(#clip0_6_7527)">
<rect width="80" height="80" rx="40" fill="#9DE6BC" fill-opacity="0.7"/>
<path d="M62.5078 18.3375C62.7387 18.5346 62.8996 18.801 62.9665 19.0971C63.0334 19.3931 63.0027 19.7028 62.8791 19.98C58.5759 29.6269 49.5394 42.9581 42.9244 49.905C41.0703 51.8484 38.7836 53.3266 36.2503 54.2194C36.1997 54.8578 36.0816 55.7325 35.8003 56.6606C35.235 58.5141 33.9244 60.8203 30.9966 61.5544C28.1611 62.2296 25.2226 62.3556 22.3397 61.9256C21.8036 61.8409 21.2751 61.714 20.7591 61.5459C20.2817 61.4007 19.8367 61.1648 19.4484 60.8513C19.1924 60.6335 18.9952 60.355 18.8747 60.0413C18.7254 59.6386 18.7294 59.1952 18.8859 58.7953C19.1531 58.1063 19.7747 57.7266 20.1825 57.5241C21.2906 56.97 21.9403 56.25 22.6209 55.2009C22.8881 54.7959 23.1384 54.3656 23.4281 53.8734L23.7572 53.3166C24.1819 52.5994 24.6741 51.7978 25.2928 50.9316C26.7778 48.8531 28.6706 48.33 30.2034 48.4116C30.5578 48.4313 30.8869 48.4819 31.1822 48.5466C31.3566 48.0628 31.5816 47.4778 31.8516 46.8366C32.5856 45.0956 33.7022 42.8456 35.19 41.0175C41.31 33.5081 52.5713 23.5631 60.8316 18.225C61.0859 18.0609 61.3863 17.9832 61.6883 18.0034C61.9903 18.0237 62.2777 18.1409 62.5078 18.3375Z" fill="white"/>
</g>
<defs>
<clipPath id="clip0_6_7527">
<rect width="80" height="80" fill="white"/>
</clipPath>
</defs>
</svg>
