<svg width="80" height="80" viewBox="0 0 80 80" fill="none" xmlns="http://www.w3.org/2000/svg">
<g clip-path="url(#clip0_6_7537)">
<rect width="80" height="80" rx="40" fill="#C2C2C2" fill-opacity="0.7"/>
<path d="M27.5 40C27.5 40.8288 27.1708 41.6237 26.5847 42.2097C25.9987 42.7958 25.2038 43.125 24.375 43.125C23.5462 43.125 22.7513 42.7958 22.1653 42.2097C21.5792 41.6237 21.25 40.8288 21.25 40C21.25 39.1712 21.5792 38.3763 22.1653 37.7903C22.7513 37.2042 23.5462 36.875 24.375 36.875C25.2038 36.875 25.9987 37.2042 26.5847 37.7903C27.1708 38.3763 27.5 39.1712 27.5 40ZM43.125 40C43.125 40.8288 42.7958 41.6237 42.2097 42.2097C41.6237 42.7958 40.8288 43.125 40 43.125C39.1712 43.125 38.3763 42.7958 37.7903 42.2097C37.2042 41.6237 36.875 40.8288 36.875 40C36.875 39.1712 37.2042 38.3763 37.7903 37.7903C38.3763 37.2042 39.1712 36.875 40 36.875C40.8288 36.875 41.6237 37.2042 42.2097 37.7903C42.7958 38.3763 43.125 39.1712 43.125 40ZM58.75 40C58.75 40.8288 58.4208 41.6237 57.8347 42.2097C57.2487 42.7958 56.4538 43.125 55.625 43.125C54.7962 43.125 54.0013 42.7958 53.4153 42.2097C52.8292 41.6237 52.5 40.8288 52.5 40C52.5 39.1712 52.8292 38.3763 53.4153 37.7903C54.0013 37.2042 54.7962 36.875 55.625 36.875C56.4538 36.875 57.2487 37.2042 57.8347 37.7903C58.4208 38.3763 58.75 39.1712 58.75 40Z" fill="white"/>
</g>
<defs>
<clipPath id="clip0_6_7537">
<rect width="80" height="80" fill="white"/>
</clipPath>
</defs>
</svg>
