<svg width="170" height="50" viewBox="0 0 170 50" fill="none" xmlns="http://www.w3.org/2000/svg">
<rect width="170" height="50" fill="white"/>
<path d="M35.4 17.96H43.79V19.01H35.4V17.96ZM38.9 18.49H40.22V21.89H38.9V18.49ZM36.36 12.98H37.68V14.03H41.48V12.98H42.8V17.08H36.36V12.98ZM37.68 15.07V16.02H41.48V15.07H37.68ZM46.6792 13.2H47.7692V14.2C47.7692 16.04 46.9392 17.62 45.1692 18.23L44.4592 17.19C46.0292 16.69 46.6792 15.45 46.6792 14.2V13.2ZM46.9392 13.2H48.0192V14.21C48.0192 15.37 48.6492 16.53 50.1392 17.02L49.4592 18.05C47.7392 17.48 46.9392 15.95 46.9392 14.21V13.2ZM50.5592 12.63H51.8892V19.4H50.5592V12.63ZM51.5092 15.31H53.1192V16.41H51.5092V15.31ZM45.9192 20.67H52.2192V21.73H45.9192V20.67ZM45.9192 18.76H47.2592V21.23H45.9192V18.76ZM60.4884 12.63H61.7484V21.89H60.4884V12.63ZM59.2484 16.19H60.7884V17.26H59.2484V16.19ZM58.4184 12.79H59.6484V21.45H58.4184V12.79ZM54.0584 18.71H54.7084C55.8484 18.71 56.7984 18.67 57.8984 18.47L57.9984 19.55C56.8784 19.77 55.8984 19.8 54.7084 19.8H54.0584V18.71ZM54.0584 13.7H57.4784V14.77H55.3784V19.23H54.0584V13.7ZM62.9977 13.44H68.4477V14.49H62.9977V13.44ZM65.7277 14.78C67.0577 14.78 67.9977 15.47 67.9977 16.49C67.9977 17.51 67.0577 18.19 65.7277 18.19C64.3877 18.19 63.4477 17.51 63.4477 16.49C63.4477 15.47 64.3877 14.78 65.7277 14.78ZM65.7277 15.78C65.1277 15.78 64.7277 16.02 64.7277 16.49C64.7277 16.95 65.1277 17.19 65.7277 17.19C66.3177 17.19 66.7277 16.95 66.7277 16.49C66.7277 16.02 66.3177 15.78 65.7277 15.78ZM68.9577 12.63H70.2877V18.44H68.9577V12.63ZM69.9177 15.02H71.5177V16.1H69.9177V15.02ZM64.1077 18.82H70.2877V21.89H68.9577V19.88H64.1077V18.82ZM65.0577 12.58H66.3877V14.04H65.0577V12.58ZM73.0169 13.41H78.8769V14.48H73.0169V13.41ZM72.2069 19.7H80.5769V20.78H72.2069V19.7ZM73.9569 16.78H75.2769V20.04H73.9569V16.78ZM78.4869 13.41H79.8269V14.32C79.8269 15.44 79.8269 16.72 79.4969 18.6L78.1769 18.47C78.4869 16.71 78.4869 15.41 78.4869 14.32V13.41ZM76.2469 16.78H77.5569V20.04H76.2469V16.78Z" fill="#095DB3"/>
<path d="M39.242 35.168C38.3833 35.168 37.6553 35.0233 37.058 34.734C36.4607 34.4353 35.952 34.0527 35.532 33.586L36.932 32.172C37.5947 32.9187 38.4113 33.292 39.382 33.292C39.9047 33.292 40.292 33.1847 40.544 32.97C40.796 32.7553 40.922 32.4707 40.922 32.116C40.922 31.8453 40.8473 31.6213 40.698 31.444C40.5487 31.2573 40.2453 31.1313 39.788 31.066L38.822 30.94C37.786 30.8093 37.0253 30.4967 36.54 30.002C36.064 29.5073 35.826 28.8493 35.826 28.028C35.826 27.5893 35.91 27.188 36.078 26.824C36.246 26.46 36.484 26.1473 36.792 25.886C37.1093 25.6247 37.492 25.424 37.94 25.284C38.3973 25.1347 38.9153 25.06 39.494 25.06C40.2313 25.06 40.88 25.1767 41.44 25.41C42 25.6433 42.4807 25.984 42.882 26.432L41.468 27.86C41.2347 27.5893 40.95 27.37 40.614 27.202C40.2873 27.0247 39.872 26.936 39.368 26.936C38.892 26.936 38.5373 27.02 38.304 27.188C38.0707 27.356 37.954 27.5893 37.954 27.888C37.954 28.224 38.0427 28.4667 38.22 28.616C38.4067 28.7653 38.7053 28.8727 39.116 28.938L40.082 29.092C41.09 29.2507 41.8367 29.5633 42.322 30.03C42.8073 30.4873 43.05 31.1407 43.05 31.99C43.05 32.4567 42.966 32.886 42.798 33.278C42.63 33.67 42.3827 34.006 42.056 34.286C41.7387 34.566 41.342 34.7853 40.866 34.944C40.39 35.0933 39.8487 35.168 39.242 35.168ZM46.1082 35L43.8962 25.228H45.9962L46.9202 29.918L47.4382 32.634H47.4802L48.0962 29.918L49.1742 25.228H51.4982L52.5902 29.918L53.1922 32.634H53.2342L53.7522 29.918L54.6902 25.228H56.7062L54.4382 35H52.0162L50.7842 29.708L50.3082 27.566H50.2662L49.7762 29.708L48.5442 35H46.1082ZM60.2714 29.974H62.1334V32.522H60.2714V29.974ZM64.9474 29.974H66.8094V32.522H64.9474V29.974ZM57.6674 29.092H69.3854V30.576H57.6674V29.092ZM63.5054 31.514C66.3054 31.514 67.9994 32.368 67.9994 33.894C67.9994 35.406 66.3054 36.26 63.5054 36.26C60.6914 36.26 58.9974 35.406 58.9974 33.894C58.9974 32.368 60.6914 31.514 63.5054 31.514ZM63.5054 32.928C61.7694 32.928 60.8874 33.236 60.8874 33.894C60.8874 34.552 61.7694 34.846 63.5054 34.846C65.2414 34.846 66.1234 34.552 66.1234 33.894C66.1234 33.236 65.2414 32.928 63.5054 32.928ZM63.5334 23.492C66.3894 23.492 68.2234 24.444 68.2234 25.998C68.2234 27.538 66.3894 28.476 63.5334 28.476C60.6634 28.476 58.8434 27.538 58.8434 25.998C58.8434 24.444 60.6634 23.492 63.5334 23.492ZM63.5334 24.92C61.7554 24.92 60.7614 25.27 60.7614 25.998C60.7614 26.712 61.7554 27.062 63.5334 27.062C65.2974 27.062 66.3054 26.712 66.3054 25.998C66.3054 25.27 65.2974 24.92 63.5334 24.92ZM78.8903 23.282H80.7523V30.87H78.8903V23.282ZM80.0103 26.39H82.4743V27.93H80.0103V26.39ZM72.3243 31.374H74.1583V32.354H78.9043V31.374H80.7523V36.106H72.3243V31.374ZM74.1583 33.754V34.65H78.9043V33.754H74.1583ZM70.5463 24.402H78.1763V25.872H70.5463V24.402ZM74.3683 26.222C76.2443 26.222 77.5463 27.146 77.5463 28.518C77.5463 29.89 76.2443 30.814 74.3683 30.814C72.4783 30.814 71.1763 29.89 71.1763 28.518C71.1763 27.146 72.4783 26.222 74.3683 26.222ZM74.3683 27.58C73.5283 27.58 72.9683 27.916 72.9683 28.518C72.9683 29.134 73.5283 29.456 74.3683 29.456C75.1943 29.456 75.7683 29.134 75.7683 28.518C75.7683 27.916 75.1943 27.58 74.3683 27.58ZM73.4303 23.184H75.2923V25.228H73.4303V23.184ZM84.5732 24.374H92.7772V25.872H84.5732V24.374ZM83.4392 33.18H95.1572V34.692H83.4392V33.18ZM85.8892 29.092H87.7372V33.656H85.8892V29.092ZM92.2312 24.374H94.1072V25.648C94.1072 27.216 94.1072 29.008 93.6452 31.64L91.7972 31.458C92.2312 28.994 92.2312 27.174 92.2312 25.648V24.374ZM89.0952 29.092H90.9292V33.656H89.0952V29.092ZM99.0621 30.058H100.924V32.606H99.0621V30.058ZM103.388 30.044H105.236V32.592H103.388V30.044ZM96.3041 29.33H108.022V30.8H96.3041V29.33ZM97.6061 31.99H106.608V36.246H104.746V33.446H97.6061V31.99ZM102.17 23.534C105.012 23.534 106.86 24.514 106.86 26.082C106.86 27.664 105.012 28.644 102.17 28.644C99.3141 28.644 97.4801 27.664 97.4801 26.082C97.4801 24.514 99.3141 23.534 102.17 23.534ZM102.17 24.976C100.392 24.976 99.3981 25.34 99.3981 26.082C99.3981 26.838 100.392 27.202 102.17 27.202C103.934 27.202 104.942 26.838 104.942 26.082C104.942 25.34 103.934 24.976 102.17 24.976ZM112.557 29.932H114.419V32.774H112.557V29.932ZM118.241 23.282H120.103V33.096H118.241V23.282ZM110.765 34.538H120.383V36.022H110.765V34.538ZM110.765 32.172H112.627V34.93H110.765V32.172ZM109.365 30.492L109.141 29.008C111.507 29.008 114.671 28.98 117.387 28.63L117.499 29.96C114.741 30.422 111.703 30.492 109.365 30.492ZM115.791 30.814H118.647V32.088H115.791V30.814ZM113.313 23.73C115.203 23.73 116.533 24.668 116.533 26.04C116.533 27.426 115.203 28.35 113.313 28.35C111.409 28.35 110.079 27.426 110.079 26.04C110.079 24.668 111.409 23.73 113.313 23.73ZM113.313 25.088C112.445 25.088 111.843 25.41 111.843 26.04C111.843 26.67 112.445 26.992 113.313 26.992C114.167 26.992 114.769 26.67 114.769 26.04C114.769 25.41 114.167 25.088 113.313 25.088Z" fill="#333333"/>
<g clip-path="url(#clip0_4_47)">
<path d="M29.0819 34.0608L21.2004 34.0579C18.7638 34.0764 18.46 35.7445 18.46 35.7445C17.9607 33.8538 15.6153 34.0579 15.6153 34.0579H7.91055V22.3296H15.3379C17.8112 22.3773 18.4675 24.4077 18.4675 24.4077C19.2763 22.35 21.8305 22.3315 21.8305 22.3315L29.0821 22.3305V34.0608H29.0819ZM21.3283 21.1641C19.1625 21.2345 18.4816 22.5523 18.4816 22.5523C17.7932 21.1711 15.7093 21.1682 15.7093 21.1682H6.78204V35.2195H15.5232C16.7156 35.2195 17.1379 35.8004 17.2789 36.2181H19.6939C20.1133 35.1649 21.3292 35.2265 21.3292 35.2265H30.218V21.1644H21.3283V21.1641Z" fill="#00964F"/>
<path d="M13.9115 27.7341H10.6548V31.1386H15.1367V31.1279H15.133V28.9045H16.2681V31.1386H20.7397V28.9045H21.872V31.1337H26.3483V29.9585H23.0991V28.9024H26.3502V25.3712H21.872V27.7313H20.7397V25.3712H19.5134V27.7292H17.4867V25.3712H16.2651V27.7313H15.1357V25.3712H10.6508V26.5433H13.9112V27.7341H13.9115ZM13.9124 29.9684H11.8774V28.9035H13.9124V29.9684ZM19.5182 29.9684H17.4897V28.9035H19.5182V29.9684ZM23.0992 26.5415H25.1277V27.7313H23.0992V26.5415Z" fill="#00964F"/>
<path d="M17.825 14.6594L18.9083 14.2876H17.825V14.6594Z" fill="#004F9F"/>
<path d="M15.486 16.2714C15.8848 15.8381 16.2995 15.8937 16.2995 16.0772C16.2995 16.2608 16.0935 16.4833 16.0935 16.4833H13.5244L12.1166 14.377C11.7659 13.8352 11.3154 13.6009 10.5707 13.6009H6.7854V19.9434C9.08656 19.9425 14.7488 19.9376 15.4137 19.9434C17.9631 19.9678 18.4616 21.0951 18.4616 21.0951C18.9958 20.2177 20.0246 19.9473 21.6111 19.9462H30.2149L30.2177 13.6009H26.3781C25.6389 13.6009 25.1884 13.8352 24.8367 14.377H24.8348L23.3979 16.4833H21.2651V14.6083L22.7246 13.1277H21.219L21.5989 12.7822H18.5463C17.9312 12.7822 17.4469 13.0418 17.2721 13.4039H16.1972C15.209 13.4039 14.8487 13.9817 15.0499 14.7421L15.4863 16.2715L15.486 16.2714ZM29.0815 18.7779H21.894C19.9783 18.7779 19.084 18.9127 18.4737 19.5997C17.8182 18.9398 17.3067 18.7808 15.3892 18.7808H7.91297V14.7732H10.263C10.4953 14.7674 10.689 14.8239 10.816 14.8931C10.91 14.9479 11.0794 15.0679 11.2034 15.2426C11.3604 15.468 12.7523 17.5851 12.7523 17.5851H16.7697C16.7697 17.5851 17.1431 16.7828 17.3724 16.2235C17.6075 15.6583 17.5258 15.2611 17.0292 15.2229C16.6097 15.1888 16.3474 15.2933 16.3032 15.4708L16.1245 14.8394C16.0173 14.5182 16.0935 14.2849 16.5241 14.2849H17.8246C17.8246 14.2986 17.8509 13.8476 18.5667 13.8476H20.7118L20.1072 14.4264V17.5848H24.2704C24.2704 17.5848 25.5955 15.4678 25.7506 15.2423C25.8719 15.0676 26.0422 14.9474 26.1382 14.8928C26.2632 14.8236 26.4589 14.766 26.6902 14.7611L29.0817 14.7622V18.7776L29.0815 18.7779Z" fill="#004F9F"/>
<path d="M16.6984 32.3852C16.8545 32.3296 16.9908 32.2145 17.0699 32.0748H17.0764V33.0761C17.0764 33.1777 17.068 33.2587 17.1611 33.3213V33.3281H16.8009V33.3213C16.9082 33.2685 16.8988 33.1846 16.8988 33.0761V32.3899H16.6986V32.3851L16.6984 32.3852Z" fill="#00964F"/>
<path d="M17.584 33.2519C17.8642 33.1934 18.1153 32.9318 18.1153 32.6351C18.1153 32.4555 18.0165 32.2544 17.8162 32.2544C17.6686 32.2544 17.5642 32.3745 17.5642 32.522C17.5642 32.6869 17.6686 32.8128 17.8276 32.8128C17.8916 32.8128 17.9564 32.7942 18.011 32.7571L17.8944 32.9054C17.8503 32.9221 17.8004 32.9298 17.7525 32.9298C17.5502 32.9298 17.3914 32.7727 17.3914 32.5638C17.3914 32.3011 17.5955 32.1285 17.8399 32.1285C18.1117 32.1285 18.2895 32.3491 18.2895 32.6165C18.2895 32.8185 18.1841 33.0176 18.03 33.1435C17.8728 33.2725 17.6952 33.3369 17.4995 33.3622L17.5842 33.2519H17.584Z" fill="#00964F"/>
<path d="M18.956 32.9438C18.8046 32.9438 18.6813 32.9369 18.5873 32.931L18.956 32.2867V32.9437V32.9438ZM18.956 33.0852V33.1311C18.956 33.2229 18.9663 33.2863 18.8713 33.3214V33.3282H19.207V33.3214C19.1308 33.2832 19.128 33.1994 19.128 33.1214V33.0852H19.2662L19.349 32.8704C19.2887 32.9232 19.2089 32.9437 19.128 32.9437V32.1569H18.8891L18.3521 33.085H18.9558L18.956 33.0852Z" fill="#00964F"/>
<path d="M20.1779 32.2362C20.0622 32.2529 19.924 32.3455 19.8393 32.4256C19.7218 32.5388 19.6512 32.6891 19.6512 32.8571C19.6512 33.0405 19.7528 33.2375 19.955 33.2375C20.1074 33.2375 20.1957 33.1185 20.1957 32.9662C20.1957 32.7916 20.1063 32.6714 19.9296 32.6714C19.8629 32.6714 19.798 32.6919 19.7387 32.73L19.8506 32.5855C19.8957 32.564 19.9475 32.5514 20.0019 32.5514C20.2173 32.5514 20.3715 32.7034 20.3715 32.927C20.3715 33.1797 20.1768 33.3555 19.9361 33.3555C19.6651 33.3555 19.4771 33.131 19.4771 32.8596C19.4771 32.4351 19.89 32.1587 20.2615 32.1256L20.1777 32.2358L20.1779 32.2362Z" fill="#00964F"/>
</g>
<defs>
<clipPath id="clip0_4_47">
<rect width="25" height="25" fill="white" transform="translate(6 12)"/>
</clipPath>
</defs>
</svg>
