<svg width="170" height="50" viewBox="0 0 170 50" fill="none" xmlns="http://www.w3.org/2000/svg">
<rect width="170" height="50" fill="white"/>
<path d="M35.4 17.96H43.79V19.01H35.4V17.96ZM38.9 18.49H40.22V21.89H38.9V18.49ZM36.36 12.98H37.68V14.03H41.48V12.98H42.8V17.08H36.36V12.98ZM37.68 15.07V16.02H41.48V15.07H37.68ZM46.6792 13.2H47.7692V14.2C47.7692 16.04 46.9392 17.62 45.1692 18.23L44.4592 17.19C46.0292 16.69 46.6792 15.45 46.6792 14.2V13.2ZM46.9392 13.2H48.0192V14.21C48.0192 15.37 48.6492 16.53 50.1392 17.02L49.4592 18.05C47.7392 17.48 46.9392 15.95 46.9392 14.21V13.2ZM50.5592 12.63H51.8892V19.4H50.5592V12.63ZM51.5092 15.31H53.1192V16.41H51.5092V15.31ZM45.9192 20.67H52.2192V21.73H45.9192V20.67ZM45.9192 18.76H47.2592V21.23H45.9192V18.76ZM60.4884 12.63H61.7484V21.89H60.4884V12.63ZM59.2484 16.19H60.7884V17.26H59.2484V16.19ZM58.4184 12.79H59.6484V21.45H58.4184V12.79ZM54.0584 18.71H54.7084C55.8484 18.71 56.7984 18.67 57.8984 18.47L57.9984 19.55C56.8784 19.77 55.8984 19.8 54.7084 19.8H54.0584V18.71ZM54.0584 13.7H57.4784V14.77H55.3784V19.23H54.0584V13.7ZM62.9977 13.44H68.4477V14.49H62.9977V13.44ZM65.7277 14.78C67.0577 14.78 67.9977 15.47 67.9977 16.49C67.9977 17.51 67.0577 18.19 65.7277 18.19C64.3877 18.19 63.4477 17.51 63.4477 16.49C63.4477 15.47 64.3877 14.78 65.7277 14.78ZM65.7277 15.78C65.1277 15.78 64.7277 16.02 64.7277 16.49C64.7277 16.95 65.1277 17.19 65.7277 17.19C66.3177 17.19 66.7277 16.95 66.7277 16.49C66.7277 16.02 66.3177 15.78 65.7277 15.78ZM68.9577 12.63H70.2877V18.44H68.9577V12.63ZM69.9177 15.02H71.5177V16.1H69.9177V15.02ZM64.1077 18.82H70.2877V21.89H68.9577V19.88H64.1077V18.82ZM65.0577 12.58H66.3877V14.04H65.0577V12.58ZM73.0169 13.41H78.8769V14.48H73.0169V13.41ZM72.2069 19.7H80.5769V20.78H72.2069V19.7ZM73.9569 16.78H75.2769V20.04H73.9569V16.78ZM78.4869 13.41H79.8269V14.32C79.8269 15.44 79.8269 16.72 79.4969 18.6L78.1769 18.47C78.4869 16.71 78.4869 15.41 78.4869 14.32V13.41ZM76.2469 16.78H77.5569V20.04H76.2469V16.78Z" fill="#095DB3"/>
<path d="M44.548 23.296H46.41V33.166H44.548V23.296ZM42.854 26.502H45.248V27.986H42.854V26.502ZM42.854 29.288H45.248V30.758H42.854V29.288ZM35.602 24.64H42.714V26.096H35.602V24.64ZM39.242 26.558C41.006 26.558 42.28 27.608 42.28 29.106C42.28 30.604 41.006 31.654 39.242 31.654C37.478 31.654 36.204 30.604 36.204 29.106C36.204 27.608 37.478 26.558 39.242 26.558ZM39.242 27.986C38.486 27.986 37.954 28.392 37.954 29.106C37.954 29.834 38.486 30.226 39.242 30.226C39.998 30.226 40.53 29.834 40.53 29.106C40.53 28.392 39.998 27.986 39.242 27.986ZM38.318 23.254H40.18V25.536H38.318V23.254ZM37.828 34.538H46.69V36.022H37.828V34.538ZM37.828 32.354H39.704V35.224H37.828V32.354ZM51.3229 24.724H52.8489V25.536C52.8489 28.014 51.6869 30.24 49.1809 31.066L48.2569 29.596C50.4129 28.882 51.3229 27.188 51.3229 25.536V24.724ZM51.7009 24.724H53.2129V25.536C53.2129 27.048 54.0809 28.532 56.1669 29.162L55.2849 30.618C52.8209 29.876 51.7009 27.846 51.7009 25.536V24.724ZM48.7469 24.15H55.7469V25.634H48.7469V24.15ZM56.7829 23.282H58.6449V30.968H56.7829V23.282ZM58.1269 26.264H60.3669V27.79H58.1269V26.264ZM54.4169 31.206C57.1049 31.206 58.7989 32.144 58.7989 33.726C58.7989 35.308 57.1049 36.246 54.4169 36.246C51.7149 36.246 50.0209 35.308 50.0209 33.726C50.0209 32.144 51.7149 31.206 54.4169 31.206ZM54.4169 32.662C52.7649 32.662 51.8689 32.998 51.8689 33.726C51.8689 34.454 52.7649 34.818 54.4169 34.818C56.0689 34.818 56.9509 34.454 56.9509 33.726C56.9509 32.998 56.0689 32.662 54.4169 32.662ZM64.4398 25.326H65.9238V26.782C65.9238 29.778 64.7058 32.704 62.2698 33.81L61.2198 32.34C63.3898 31.374 64.4398 28.98 64.4398 26.782V25.326ZM64.8598 25.326H66.3298V26.782C66.3298 28.882 67.3658 31.122 69.5358 32.018L68.5278 33.488C66.0638 32.424 64.8598 29.666 64.8598 26.782V25.326ZM61.7378 24.528H69.0038V26.054H61.7378V24.528ZM70.2078 23.282H72.0838V36.246H70.2078V23.282ZM77.5707 29.932H79.4327V32.774H77.5707V29.932ZM83.2547 23.282H85.1167V33.096H83.2547V23.282ZM75.7787 34.538H85.3967V36.022H75.7787V34.538ZM75.7787 32.172H77.6407V34.93H75.7787V32.172ZM74.3787 30.492L74.1547 29.008C76.5207 29.008 79.6847 28.98 82.4007 28.63L82.5127 29.96C79.7547 30.422 76.7167 30.492 74.3787 30.492ZM80.8047 30.814H83.6607V32.088H80.8047V30.814ZM78.3267 23.73C80.2167 23.73 81.5467 24.668 81.5467 26.04C81.5467 27.426 80.2167 28.35 78.3267 28.35C76.4227 28.35 75.0927 27.426 75.0927 26.04C75.0927 24.668 76.4227 23.73 78.3267 23.73ZM78.3267 25.088C77.4587 25.088 76.8567 25.41 76.8567 26.04C76.8567 26.67 77.4587 26.992 78.3267 26.992C79.1807 26.992 79.7827 26.67 79.7827 26.04C79.7827 25.41 79.1807 25.088 78.3267 25.088ZM95.9796 23.282H97.8556V29.834H95.9796V23.282ZM89.2036 30.408H97.8556V33.922H91.0516V35.224H89.2316V32.578H96.0076V31.822H89.2036V30.408ZM89.2316 34.72H98.1776V36.162H89.2316V34.72ZM90.1136 23.576H91.6536V24.556C91.6536 26.95 90.4496 29.12 87.9156 29.89L87.0196 28.42C89.1896 27.762 90.1136 26.138 90.1136 24.556V23.576ZM90.4916 23.576H92.0176V24.556C92.0176 26.096 92.9276 27.608 95.0416 28.21L94.1456 29.652C91.6536 28.924 90.4916 26.894 90.4916 24.556V23.576ZM101.327 31.052H103.161V32.144H108.355V31.052H110.203V36.106H101.327V31.052ZM103.161 33.53V34.65H108.355V33.53H103.161ZM99.9545 28.938H111.673V30.408H99.9545V28.938ZM104.869 23.422H106.465V23.814C106.465 26.068 104.533 27.93 101.187 28.364L100.529 26.922C103.455 26.572 104.869 25.13 104.869 23.814V23.422ZM105.177 23.422H106.773V23.814C106.773 25.116 108.187 26.572 111.099 26.922L110.441 28.364C107.095 27.93 105.177 26.054 105.177 23.814V23.422ZM117.985 26.236H120.043V27.734H117.985V26.236ZM122.115 23.282H123.879V32.984H122.115V23.282ZM119.525 23.492H121.275V32.592H119.525V23.492ZM115.157 34.538H124.215V36.022H115.157V34.538ZM115.157 31.85H117.019V35.476H115.157V31.85ZM115.115 24.15H116.571V25.816C116.571 28.098 115.731 30.352 113.673 31.318L112.665 29.904C114.429 29.036 115.115 27.356 115.115 25.816V24.15ZM115.493 24.15H116.921V25.816C116.921 27.314 117.537 28.798 119.161 29.582L118.139 30.996C116.221 30.1 115.493 28.028 115.493 25.816V24.15ZM134.742 23.268H136.59V36.274H134.742V23.268ZM132.516 27.832H134.952V29.344H132.516V27.832ZM126.3 31.836H127.336C129.478 31.836 131.074 31.808 132.908 31.514L133.076 32.998C131.2 33.292 129.52 33.348 127.336 33.348H126.3V31.836ZM126.3 24.36H132.306V25.872H128.148V32.312H126.3V24.36ZM127.728 27.972H131.858V29.428H127.728V27.972Z" fill="#333333"/>
<g clip-path="url(#clip0_4_102)">
<path d="M29.0819 34.0608L21.2004 34.0579C18.7638 34.0764 18.46 35.7445 18.46 35.7445C17.9607 33.8538 15.6153 34.0579 15.6153 34.0579H7.91055V22.3296H15.3379C17.8112 22.3773 18.4675 24.4077 18.4675 24.4077C19.2763 22.35 21.8305 22.3315 21.8305 22.3315L29.0821 22.3305V34.0608H29.0819ZM21.3283 21.1641C19.1625 21.2345 18.4816 22.5523 18.4816 22.5523C17.7932 21.1711 15.7093 21.1682 15.7093 21.1682H6.78204V35.2195H15.5232C16.7156 35.2195 17.1379 35.8004 17.2789 36.2181H19.6939C20.1133 35.1649 21.3292 35.2265 21.3292 35.2265H30.218V21.1644H21.3283V21.1641Z" fill="#00964F"/>
<path d="M13.9115 27.734H10.6548V31.1386H15.1367V31.1278H15.133V28.9045H16.2681V31.1386H20.7397V28.9045H21.872V31.1337H26.3483V29.9585H23.0991V28.9024H26.3502V25.3711H21.872V27.7313H20.7397V25.3711H19.5134V27.7292H17.4867V25.3711H16.2651V27.7313H15.1357V25.3711H10.6508V26.5433H13.9112V27.734H13.9115ZM13.9124 29.9684H11.8774V28.9035H13.9124V29.9684ZM19.5182 29.9684H17.4897V28.9035H19.5182V29.9684ZM23.0992 26.5415H25.1277V27.7313H23.0992V26.5415Z" fill="#00964F"/>
<path d="M17.825 14.6594L18.9083 14.2876H17.825V14.6594Z" fill="#004F9F"/>
<path d="M15.486 16.2714C15.8848 15.8381 16.2995 15.8936 16.2995 16.0772C16.2995 16.2608 16.0935 16.4833 16.0935 16.4833H13.5244L12.1166 14.377C11.7659 13.8352 11.3154 13.6009 10.5707 13.6009H6.7854V19.9434C9.08656 19.9424 14.7488 19.9376 15.4137 19.9434C17.9631 19.9678 18.4616 21.0951 18.4616 21.0951C18.9958 20.2176 20.0246 19.9473 21.6111 19.9462H30.2149L30.2177 13.6009H26.3781C25.6389 13.6009 25.1884 13.8352 24.8367 14.377H24.8348L23.3979 16.4833H21.2651V14.6083L22.7246 13.1277H21.219L21.5989 12.7822H18.5463C17.9312 12.7822 17.4469 13.0418 17.2721 13.4039H16.1972C15.209 13.4039 14.8487 13.9817 15.0499 14.7421L15.4863 16.2715L15.486 16.2714ZM29.0815 18.7778H21.894C19.9783 18.7778 19.084 18.9127 18.4737 19.5997C17.8182 18.9398 17.3067 18.7808 15.3892 18.7808H7.91297V14.7732H10.263C10.4953 14.7673 10.689 14.8239 10.816 14.8931C10.91 14.9478 11.0794 15.0679 11.2034 15.2425C11.3604 15.468 12.7523 17.5851 12.7523 17.5851H16.7697C16.7697 17.5851 17.1431 16.7828 17.3724 16.2234C17.6075 15.6583 17.5258 15.2611 17.0292 15.2229C16.6097 15.1888 16.3474 15.2932 16.3032 15.4708L16.1245 14.8394C16.0173 14.5182 16.0935 14.2849 16.5241 14.2849H17.8246C17.8246 14.2986 17.8509 13.8476 18.5667 13.8476H20.7118L20.1072 14.4264V17.5848H24.2704C24.2704 17.5848 25.5955 15.4677 25.7506 15.2423C25.8719 15.0676 26.0422 14.9474 26.1382 14.8928C26.2632 14.8236 26.4589 14.766 26.6902 14.7611L29.0817 14.7622V18.7776L29.0815 18.7778Z" fill="#004F9F"/>
<path d="M16.6984 32.3852C16.8545 32.3296 16.9908 32.2145 17.0699 32.0748H17.0764V33.0761C17.0764 33.1777 17.068 33.2587 17.1611 33.3213V33.3281H16.8009V33.3213C16.9082 33.2685 16.8988 33.1846 16.8988 33.0761V32.3899H16.6986V32.3851L16.6984 32.3852Z" fill="#00964F"/>
<path d="M17.584 33.2519C17.8642 33.1934 18.1153 32.9318 18.1153 32.6351C18.1153 32.4555 18.0165 32.2544 17.8162 32.2544C17.6686 32.2544 17.5642 32.3745 17.5642 32.522C17.5642 32.6869 17.6686 32.8128 17.8276 32.8128C17.8916 32.8128 17.9564 32.7942 18.011 32.7571L17.8944 32.9054C17.8503 32.9221 17.8004 32.9298 17.7525 32.9298C17.5502 32.9298 17.3914 32.7727 17.3914 32.5637C17.3914 32.3011 17.5955 32.1285 17.8399 32.1285C18.1117 32.1285 18.2895 32.3491 18.2895 32.6165C18.2895 32.8185 18.1841 33.0176 18.03 33.1435C17.8728 33.2725 17.6952 33.3368 17.4995 33.3622L17.5842 33.2519H17.584Z" fill="#00964F"/>
<path d="M18.956 32.9438C18.8046 32.9438 18.6813 32.9369 18.5873 32.931L18.956 32.2867V32.9437V32.9438ZM18.956 33.0852V33.1311C18.956 33.2229 18.9663 33.2863 18.8713 33.3214V33.3282H19.207V33.3214C19.1308 33.2832 19.128 33.1994 19.128 33.1214V33.0852H19.2662L19.349 32.8704C19.2887 32.9232 19.2089 32.9437 19.128 32.9437V32.1569H18.8891L18.3521 33.085H18.9558L18.956 33.0852Z" fill="#00964F"/>
<path d="M20.1779 32.2362C20.0622 32.2529 19.924 32.3455 19.8393 32.4256C19.7218 32.5388 19.6512 32.6891 19.6512 32.8571C19.6512 33.0405 19.7528 33.2375 19.955 33.2375C20.1074 33.2375 20.1957 33.1185 20.1957 32.9662C20.1957 32.7916 20.1063 32.6714 19.9296 32.6714C19.8629 32.6714 19.798 32.6919 19.7387 32.73L19.8506 32.5855C19.8957 32.564 19.9475 32.5514 20.0019 32.5514C20.2173 32.5514 20.3715 32.7034 20.3715 32.927C20.3715 33.1798 20.1768 33.3555 19.9361 33.3555C19.6651 33.3555 19.4771 33.131 19.4771 32.8596C19.4771 32.4351 19.89 32.1587 20.2615 32.1256L20.1777 32.2358L20.1779 32.2362Z" fill="#00964F"/>
</g>
<defs>
<clipPath id="clip0_4_102">
<rect width="25" height="25" fill="white" transform="translate(6 12)"/>
</clipPath>
</defs>
</svg>
