<svg width="170" height="50" viewBox="0 0 170 50" fill="none" xmlns="http://www.w3.org/2000/svg">
<rect width="170" height="50" fill="white"/>
<path d="M35.4 17.96H43.79V19.01H35.4V17.96ZM38.9 18.49H40.22V21.89H38.9V18.49ZM36.36 12.98H37.68V14.03H41.48V12.98H42.8V17.08H36.36V12.98ZM37.68 15.07V16.02H41.48V15.07H37.68ZM46.6792 13.2H47.7692V14.2C47.7692 16.04 46.9392 17.62 45.1692 18.23L44.4592 17.19C46.0292 16.69 46.6792 15.45 46.6792 14.2V13.2ZM46.9392 13.2H48.0192V14.21C48.0192 15.37 48.6492 16.53 50.1392 17.02L49.4592 18.05C47.7392 17.48 46.9392 15.95 46.9392 14.21V13.2ZM50.5592 12.63H51.8892V19.4H50.5592V12.63ZM51.5092 15.31H53.1192V16.41H51.5092V15.31ZM45.9192 20.67H52.2192V21.73H45.9192V20.67ZM45.9192 18.76H47.2592V21.23H45.9192V18.76ZM60.4884 12.63H61.7484V21.89H60.4884V12.63ZM59.2484 16.19H60.7884V17.26H59.2484V16.19ZM58.4184 12.79H59.6484V21.45H58.4184V12.79ZM54.0584 18.71H54.7084C55.8484 18.71 56.7984 18.67 57.8984 18.47L57.9984 19.55C56.8784 19.77 55.8984 19.8 54.7084 19.8H54.0584V18.71ZM54.0584 13.7H57.4784V14.77H55.3784V19.23H54.0584V13.7ZM62.9977 13.44H68.4477V14.49H62.9977V13.44ZM65.7277 14.78C67.0577 14.78 67.9977 15.47 67.9977 16.49C67.9977 17.51 67.0577 18.19 65.7277 18.19C64.3877 18.19 63.4477 17.51 63.4477 16.49C63.4477 15.47 64.3877 14.78 65.7277 14.78ZM65.7277 15.78C65.1277 15.78 64.7277 16.02 64.7277 16.49C64.7277 16.95 65.1277 17.19 65.7277 17.19C66.3177 17.19 66.7277 16.95 66.7277 16.49C66.7277 16.02 66.3177 15.78 65.7277 15.78ZM68.9577 12.63H70.2877V18.44H68.9577V12.63ZM69.9177 15.02H71.5177V16.1H69.9177V15.02ZM64.1077 18.82H70.2877V21.89H68.9577V19.88H64.1077V18.82ZM65.0577 12.58H66.3877V14.04H65.0577V12.58ZM73.0169 13.41H78.8769V14.48H73.0169V13.41ZM72.2069 19.7H80.5769V20.78H72.2069V19.7ZM73.9569 16.78H75.2769V20.04H73.9569V16.78ZM78.4869 13.41H79.8269V14.32C79.8269 15.44 79.8269 16.72 79.4969 18.6L78.1769 18.47C78.4869 16.71 78.4869 15.41 78.4869 14.32V13.41ZM76.2469 16.78H77.5569V20.04H76.2469V16.78Z" fill="#095DB3"/>
<path d="M39.732 24.136C41.776 24.136 43.302 25.466 43.302 27.328C43.302 29.204 41.776 30.534 39.732 30.534C37.702 30.534 36.148 29.204 36.148 27.328C36.148 25.466 37.702 24.136 39.732 24.136ZM39.732 25.732C38.738 25.732 37.982 26.32 37.982 27.328C37.982 28.35 38.738 28.938 39.732 28.938C40.726 28.938 41.482 28.35 41.482 27.328C41.482 26.32 40.726 25.732 39.732 25.732ZM44.52 23.268H46.382V36.274H44.52V23.268ZM35.84 33.642L35.616 32.144C37.898 32.144 41.076 32.116 43.806 31.71L43.946 33.054C41.132 33.614 38.08 33.642 35.84 33.642ZM50.7769 24.066H52.2329V25.564C52.2329 27.762 51.3509 29.96 49.2369 30.856L48.2569 29.414C50.0629 28.616 50.7769 27.02 50.7769 25.564V24.066ZM51.1129 24.066H52.5689V25.564C52.5689 26.95 53.2689 28.35 54.9769 29.022L53.9829 30.436C51.9669 29.638 51.1129 27.678 51.1129 25.564V24.066ZM57.7209 23.296H59.4849V31.206H57.7209V23.296ZM56.1669 26.432H58.2249V27.93H56.1669V26.432ZM54.9769 23.534H56.7129V30.8H54.9769V23.534ZM55.0889 31.388C57.8049 31.388 59.5549 32.298 59.5549 33.824C59.5549 35.336 57.8049 36.246 55.0889 36.246C52.3589 36.246 50.6369 35.336 50.6369 33.824C50.6369 32.298 52.3589 31.388 55.0889 31.388ZM55.0889 32.788C53.4229 32.788 52.4849 33.138 52.4849 33.824C52.4849 34.51 53.4229 34.846 55.0889 34.846C56.7549 34.846 57.6789 34.51 57.6789 33.824C57.6789 33.138 56.7549 32.788 55.0889 32.788ZM67.5898 25.158H70.8938V26.628H67.5898V25.158ZM67.5898 27.748H70.9498V29.232H67.5898V27.748ZM70.3058 23.282H72.1678V30.87H70.3058V23.282ZM61.8498 24.22H67.9818V30.17H61.8498V24.22ZM66.1478 25.69H63.6838V28.714H66.1478V25.69ZM67.7718 31.206C70.5158 31.206 72.2098 32.144 72.2098 33.726C72.2098 35.322 70.5158 36.246 67.7718 36.246C65.0278 36.246 63.3338 35.322 63.3338 33.726C63.3338 32.144 65.0278 31.206 67.7718 31.206ZM67.7718 32.634C66.0918 32.634 65.1958 32.984 65.1958 33.726C65.1958 34.468 66.0918 34.832 67.7718 34.832C69.4658 34.832 70.3618 34.468 70.3618 33.726C70.3618 32.984 69.4658 32.634 67.7718 32.634ZM76.8007 29.974H78.6627V32.522H76.8007V29.974ZM81.4767 29.974H83.3387V32.522H81.4767V29.974ZM74.1967 29.092H85.9147V30.576H74.1967V29.092ZM80.0347 31.514C82.8347 31.514 84.5287 32.368 84.5287 33.894C84.5287 35.406 82.8347 36.26 80.0347 36.26C77.2207 36.26 75.5267 35.406 75.5267 33.894C75.5267 32.368 77.2207 31.514 80.0347 31.514ZM80.0347 32.928C78.2987 32.928 77.4167 33.236 77.4167 33.894C77.4167 34.552 78.2987 34.846 80.0347 34.846C81.7707 34.846 82.6527 34.552 82.6527 33.894C82.6527 33.236 81.7707 32.928 80.0347 32.928ZM80.0627 23.492C82.9187 23.492 84.7527 24.444 84.7527 25.998C84.7527 27.538 82.9187 28.476 80.0627 28.476C77.1927 28.476 75.3727 27.538 75.3727 25.998C75.3727 24.444 77.1927 23.492 80.0627 23.492ZM80.0627 24.92C78.2847 24.92 77.2907 25.27 77.2907 25.998C77.2907 26.712 78.2847 27.062 80.0627 27.062C81.8267 27.062 82.8347 26.712 82.8347 25.998C82.8347 25.27 81.8267 24.92 80.0627 24.92ZM95.4196 23.282H97.2816V30.87H95.4196V23.282ZM96.5396 26.39H99.0036V27.93H96.5396V26.39ZM88.8536 31.374H90.6876V32.354H95.4336V31.374H97.2816V36.106H88.8536V31.374ZM90.6876 33.754V34.65H95.4336V33.754H90.6876ZM87.0756 24.402H94.7056V25.872H87.0756V24.402ZM90.8976 26.222C92.7736 26.222 94.0756 27.146 94.0756 28.518C94.0756 29.89 92.7736 30.814 90.8976 30.814C89.0076 30.814 87.7056 29.89 87.7056 28.518C87.7056 27.146 89.0076 26.222 90.8976 26.222ZM90.8976 27.58C90.0576 27.58 89.4976 27.916 89.4976 28.518C89.4976 29.134 90.0576 29.456 90.8976 29.456C91.7236 29.456 92.2976 29.134 92.2976 28.518C92.2976 27.916 91.7236 27.58 90.8976 27.58ZM89.9596 23.184H91.8216V25.228H89.9596V23.184ZM105.751 31.346C108.551 31.346 110.343 32.27 110.343 33.81C110.343 35.322 108.551 36.246 105.751 36.246C102.951 36.246 101.159 35.322 101.159 33.81C101.159 32.27 102.951 31.346 105.751 31.346ZM105.751 32.746C104.001 32.746 103.007 33.11 103.007 33.81C103.007 34.496 104.001 34.846 105.751 34.846C107.501 34.846 108.495 34.496 108.495 33.81C108.495 33.11 107.501 32.746 105.751 32.746ZM101.299 23.856H109.503V25.326H101.299V23.856ZM99.9825 29.064H111.659V30.548H99.9825V29.064ZM104.309 26.81H106.157V29.442H104.309V26.81ZM108.425 23.856H110.273V24.92C110.273 25.942 110.273 27.048 109.923 28.392L108.075 28.196C108.425 26.866 108.425 25.928 108.425 24.92V23.856ZM112.833 24.416H120.463V25.886H112.833V24.416ZM116.655 26.292C118.517 26.292 119.833 27.258 119.833 28.686C119.833 30.114 118.517 31.066 116.655 31.066C114.779 31.066 113.463 30.114 113.463 28.686C113.463 27.258 114.779 26.292 116.655 26.292ZM116.655 27.692C115.815 27.692 115.255 28.028 115.255 28.686C115.255 29.33 115.815 29.666 116.655 29.666C117.481 29.666 118.055 29.33 118.055 28.686C118.055 28.028 117.481 27.692 116.655 27.692ZM121.177 23.282H123.039V31.416H121.177V23.282ZM122.521 26.628H124.761V28.14H122.521V26.628ZM114.387 31.948H123.039V36.246H121.177V33.432H114.387V31.948ZM115.717 23.212H117.579V25.256H115.717V23.212ZM125.712 30.744H137.458V32.214H125.712V30.744ZM130.612 31.486H132.46V36.246H130.612V31.486ZM127.056 23.772H128.904V25.242H134.224V23.772H136.072V29.512H127.056V23.772ZM128.904 26.698V28.028H134.224V26.698H128.904Z" fill="#333333"/>
<g clip-path="url(#clip0_4_74)">
<path d="M29.0819 34.0608L21.2004 34.0579C18.7638 34.0764 18.46 35.7445 18.46 35.7445C17.9607 33.8538 15.6153 34.0579 15.6153 34.0579H7.91055V22.3296H15.3379C17.8112 22.3773 18.4675 24.4077 18.4675 24.4077C19.2763 22.35 21.8305 22.3315 21.8305 22.3315L29.0821 22.3305V34.0608H29.0819ZM21.3283 21.1641C19.1625 21.2345 18.4816 22.5523 18.4816 22.5523C17.7932 21.1711 15.7093 21.1682 15.7093 21.1682H6.78204V35.2195H15.5232C16.7156 35.2195 17.1379 35.8004 17.2789 36.2181H19.6939C20.1133 35.1649 21.3292 35.2265 21.3292 35.2265H30.218V21.1644H21.3283V21.1641Z" fill="#00964F"/>
<path d="M13.9115 27.7341H10.6548V31.1386H15.1367V31.1279H15.133V28.9045H16.2681V31.1386H20.7397V28.9045H21.872V31.1337H26.3483V29.9585H23.0991V28.9024H26.3502V25.3712H21.872V27.7313H20.7397V25.3712H19.5134V27.7292H17.4867V25.3712H16.2651V27.7313H15.1357V25.3712H10.6508V26.5433H13.9112V27.7341H13.9115ZM13.9124 29.9684H11.8774V28.9035H13.9124V29.9684ZM19.5182 29.9684H17.4897V28.9035H19.5182V29.9684ZM23.0992 26.5415H25.1277V27.7313H23.0992V26.5415Z" fill="#00964F"/>
<path d="M17.825 14.6594L18.9083 14.2876H17.825V14.6594Z" fill="#004F9F"/>
<path d="M15.486 16.2713C15.8848 15.8381 16.2995 15.8936 16.2995 16.0772C16.2995 16.2608 16.0935 16.4833 16.0935 16.4833H13.5244L12.1166 14.377C11.7659 13.8352 11.3154 13.6009 10.5707 13.6009H6.7854V19.9434C9.08656 19.9424 14.7488 19.9376 15.4137 19.9434C17.9631 19.9678 18.4616 21.0951 18.4616 21.0951C18.9958 20.2176 20.0246 19.9473 21.6111 19.9462H30.2149L30.2177 13.6009H26.3781C25.6389 13.6009 25.1884 13.8352 24.8367 14.377H24.8348L23.3979 16.4833H21.2651V14.6083L22.7246 13.1277H21.219L21.5989 12.7822H18.5463C17.9312 12.7822 17.4469 13.0418 17.2721 13.4039H16.1972C15.209 13.4039 14.8487 13.9817 15.0499 14.7421L15.4863 16.2715L15.486 16.2713ZM29.0815 18.7778H21.894C19.9783 18.7778 19.084 18.9127 18.4737 19.5997C17.8182 18.9398 17.3067 18.7808 15.3892 18.7808H7.91297V14.7732H10.263C10.4953 14.7673 10.689 14.8239 10.816 14.8931C10.91 14.9478 11.0794 15.0679 11.2034 15.2425C11.3604 15.468 12.7523 17.5851 12.7523 17.5851H16.7697C16.7697 17.5851 17.1431 16.7828 17.3724 16.2234C17.6075 15.6583 17.5258 15.2611 17.0292 15.2229C16.6097 15.1888 16.3474 15.2932 16.3032 15.4708L16.1245 14.8393C16.0173 14.5182 16.0935 14.2849 16.5241 14.2849H17.8246C17.8246 14.2986 17.8509 13.8476 18.5667 13.8476H20.7118L20.1072 14.4264V17.5848H24.2704C24.2704 17.5848 25.5955 15.4677 25.7506 15.2423C25.8719 15.0676 26.0422 14.9474 26.1382 14.8928C26.2632 14.8236 26.4589 14.7659 26.6902 14.7611L29.0817 14.7622V18.7776L29.0815 18.7778Z" fill="#004F9F"/>
<path d="M16.6984 32.3852C16.8545 32.3296 16.9908 32.2145 17.0699 32.0748H17.0764V33.0761C17.0764 33.1777 17.068 33.2587 17.1611 33.3213V33.3281H16.8009V33.3213C16.9082 33.2685 16.8988 33.1846 16.8988 33.0761V32.3899H16.6986V32.3851L16.6984 32.3852Z" fill="#00964F"/>
<path d="M17.584 33.2519C17.8642 33.1934 18.1153 32.9318 18.1153 32.6351C18.1153 32.4555 18.0165 32.2544 17.8162 32.2544C17.6686 32.2544 17.5642 32.3745 17.5642 32.522C17.5642 32.6869 17.6686 32.8128 17.8276 32.8128C17.8916 32.8128 17.9564 32.7942 18.011 32.7571L17.8944 32.9054C17.8503 32.9221 17.8004 32.9298 17.7525 32.9298C17.5502 32.9298 17.3914 32.7727 17.3914 32.5638C17.3914 32.3011 17.5955 32.1285 17.8399 32.1285C18.1117 32.1285 18.2895 32.3491 18.2895 32.6165C18.2895 32.8185 18.1841 33.0176 18.03 33.1435C17.8728 33.2725 17.6952 33.3369 17.4995 33.3622L17.5842 33.2519H17.584Z" fill="#00964F"/>
<path d="M18.956 32.9438C18.8046 32.9438 18.6813 32.9369 18.5873 32.931L18.956 32.2867V32.9437V32.9438ZM18.956 33.0852V33.1311C18.956 33.2229 18.9663 33.2863 18.8713 33.3214V33.3282H19.207V33.3214C19.1308 33.2832 19.128 33.1994 19.128 33.1214V33.0852H19.2662L19.349 32.8704C19.2887 32.9232 19.2089 32.9437 19.128 32.9437V32.1569H18.8891L18.3521 33.085H18.9558L18.956 33.0852Z" fill="#00964F"/>
<path d="M20.1779 32.2362C20.0622 32.2529 19.924 32.3455 19.8393 32.4256C19.7218 32.5388 19.6512 32.6891 19.6512 32.8571C19.6512 33.0405 19.7528 33.2375 19.955 33.2375C20.1074 33.2375 20.1957 33.1185 20.1957 32.9662C20.1957 32.7916 20.1063 32.6714 19.9296 32.6714C19.8629 32.6714 19.798 32.6919 19.7387 32.73L19.8506 32.5855C19.8957 32.564 19.9475 32.5514 20.0019 32.5514C20.2173 32.5514 20.3715 32.7034 20.3715 32.927C20.3715 33.1797 20.1768 33.3555 19.9361 33.3555C19.6651 33.3555 19.4771 33.131 19.4771 32.8596C19.4771 32.4351 19.89 32.1587 20.2615 32.1256L20.1777 32.2358L20.1779 32.2362Z" fill="#00964F"/>
</g>
<defs>
<clipPath id="clip0_4_74">
<rect width="25" height="25" fill="white" transform="translate(6 12)"/>
</clipPath>
</defs>
</svg>
