<?xml version="1.0" encoding="utf-8"?>
<!-- Generator: Adobe Illustrator 16.0.0, SVG Export Plug-In . SVG Version: 6.00 Build 0)  -->
<!DOCTYPE svg PUBLIC "-//W3C//DTD SVG 1.1//EN" "http://www.w3.org/Graphics/SVG/1.1/DTD/svg11.dtd">
<svg version="1.1" id="Layer_1" xmlns="http://www.w3.org/2000/svg" xmlns:xlink="http://www.w3.org/1999/xlink" x="0px" y="0px"
	 width="160px" height="40px" viewBox="0 0 160 40" enable-background="new 0 0 160 40" xml:space="preserve">
<g>
	<path fill="#757575" d="M146.195,36.466h6.642v-2.601h-6.642V36.466z M143.557,31.746h11.92v6.84h-10.22
		c-1.133,0-1.7-0.566-1.7-1.7V31.746z M148.236,29.984c-0.895,0.201-1.834,0.354-2.819,0.461c-0.974,0.094-2.188,0.141-3.642,0.141
		h-1.479v-9.5h6.939v2.08h-4.461v1.561h4.24v2.06h-4.24v1.721c1.095-0.014,2.041-0.065,2.841-0.159
		c0.801-0.095,1.567-0.228,2.301-0.4L148.236,29.984z M149.337,26.646h-1.78v-2.201h1.78v-4.079h2.479v10.479h-2.479V26.646z
		 M155.477,20.105v10.84h-2.56v-10.84H155.477z M138.443,33.686v2.28h-16.52v-2.28H138.443z M123.984,30.484l-1.521-2.1
		c2.36-1.054,4.026-2.087,5-3.101c0.986-1.026,1.479-2.16,1.479-3.399v-0.88h2.779v0.938c0,1.574-0.427,2.928-1.279,4.062
		l0.141,0.08l0.88-0.642c0.308-0.227,0.593-0.34,0.86-0.34c0.253,0,0.525,0.095,0.818,0.28l4.762,2.921l-1.541,2.119l-5.459-3.561
		c-0.188-0.119-0.387-0.18-0.602-0.18c-0.24,0-0.453,0.072-0.64,0.221l-0.041,0.02c-0.601,0.586-1.358,1.166-2.279,1.74
		C126.438,29.227,125.316,29.832,123.984,30.484z M111.473,27.525c0.268,0,0.487,0.113,0.66,0.34l3.239,4.18l-2.08,1.762
		l-3.299-4.521c-0.027-0.066-0.089-0.1-0.181-0.1c-0.08,0-0.141,0.032-0.181,0.1c-0.36,0.707-0.819,1.439-1.38,2.199
		c-0.561,0.748-1.273,1.627-2.141,2.641l-2.061-1.739c1.521-1.64,2.606-3.12,3.26-4.44c0.653-1.332,0.979-2.799,0.979-4.399v-2.26
		h2.701v2.239c0,1.693-0.269,3.222-0.802,4.58l0.101,0.062l0.479-0.381C110.984,27.611,111.221,27.525,111.473,27.525z
		 M119.413,20.105v17.76h-2.701v-17.76H119.413z M102.182,36.064v2.16H91.62c-1.134,0-1.699-0.565-1.699-1.699v-3.08h2.66v2.619
		H102.182z M90.7,30.186c-1.24,0.054-2.66,0.08-4.261,0.08l-0.198-2.141c2.278,0,4.466-0.046,6.56-0.141
		c2.106-0.092,3.827-0.232,5.159-0.42l0.24,2c-1.308,0.188-2.946,0.348-4.921,0.479v2.899H90.7V30.186z M90.102,23.945
		c0,0.414,0.174,0.74,0.52,0.979c0.359,0.24,0.848,0.359,1.461,0.359s1.093-0.119,1.439-0.359c0.358-0.239,0.539-0.565,0.539-0.979
		v-0.199c0-0.428-0.181-0.762-0.539-1c-0.348-0.24-0.826-0.36-1.439-0.36s-1.102,0.12-1.461,0.36c-0.346,0.238-0.52,0.572-0.52,1
		V23.945z M87.421,23.826c0-0.682,0.192-1.273,0.58-1.781c0.399-0.52,0.946-0.92,1.64-1.199c0.707-0.279,1.521-0.42,2.44-0.42
		s1.728,0.141,2.42,0.42c0.706,0.279,1.253,0.68,1.64,1.199c0.399,0.508,0.602,1.102,0.602,1.781c0,0.693-0.201,1.299-0.602,1.818
		c-0.387,0.521-0.934,0.92-1.64,1.2c-0.692,0.279-1.5,0.421-2.42,0.421s-1.733-0.142-2.44-0.421c-0.692-0.28-1.24-0.68-1.64-1.2
		C87.613,25.125,87.421,24.52,87.421,23.826z M99.161,30.625v-10.52h2.659v14.34h-2.659v-1.859h-3.722v-1.961H99.161z
		 M75.929,27.926c0.267,0,0.513,0.113,0.739,0.34l3.141,3.62l-2.039,1.72l-3.281-3.959c-0.094-0.094-0.18-0.141-0.26-0.141
		s-0.153,0.039-0.22,0.119c-0.721,1.201-1.881,2.634-3.48,4.301l-2.04-1.68c1.493-1.414,2.573-2.74,3.24-3.98
		c0.68-1.254,1.02-2.586,1.02-4v-0.38h-3.5v-2.239h9.661v2.239h-3.461v0.479c0,1.507-0.286,2.894-0.86,4.16l0.101,0.061l0.54-0.4
		C75.469,28.012,75.701,27.926,75.929,27.926z M83.749,20.105v17.76h-2.701v-17.76H83.749z M62.276,35.006
		c0-0.467-0.247-0.847-0.74-1.141c-0.493-0.293-1.246-0.439-2.26-0.439c-1.026,0-1.787,0.146-2.28,0.439
		c-0.493,0.294-0.74,0.674-0.74,1.141v0.279c0,0.453,0.247,0.826,0.74,1.121c0.507,0.293,1.267,0.438,2.28,0.438
		c1.013,0,1.767-0.146,2.26-0.438c0.493-0.295,0.74-0.668,0.74-1.121V35.006z M65.076,35.125c0,0.761-0.227,1.42-0.68,1.98
		c-0.453,0.572-1.12,1.014-2,1.319c-0.867,0.32-1.907,0.48-3.12,0.48c-1.214,0-2.26-0.16-3.14-0.48
		c-0.881-0.307-1.547-0.747-2-1.319c-0.454-0.562-0.681-1.221-0.681-1.98c0-0.746,0.227-1.398,0.681-1.959
		c0.453-0.574,1.119-1.014,2-1.32c0.88-0.32,1.926-0.479,3.14-0.479c1.213,0,2.253,0.159,3.12,0.479c0.88,0.307,1.547,0.746,2,1.32
		C64.85,33.727,65.076,34.379,65.076,35.125z M61.017,30.045c-1.134,0.201-2.307,0.354-3.521,0.461
		c-1.2,0.094-2.706,0.141-4.52,0.141h-1.86v-6h5.72v-1.479h-5.76v-2.16h8.32v5.761h-5.72v1.739c1.479-0.014,2.753-0.065,3.819-0.159
		c1.08-0.095,2.146-0.228,3.2-0.4L61.017,30.045z M64.977,24.605v1.739h2.64v2.199h-2.64v2.399h-2.66V20.104h2.66v2.301h2.64v2.198
		h-2.64V24.605z M36.225,31.605h11.92v7.199h-2.641v-4.939h-9.279V31.605z M45.464,26.285v-1.66h-2.84
		c0.04,0.281,0.061,0.574,0.061,0.881c0,0.279-0.021,0.539-0.061,0.779H45.464z M39.884,25.025c0-0.627-0.187-1.113-0.56-1.461
		c-0.36-0.359-0.847-0.539-1.46-0.539c-0.627,0-1.127,0.18-1.5,0.539c-0.36,0.348-0.54,0.834-0.54,1.461v0.979
		c0,0.627,0.18,1.119,0.54,1.479c0.373,0.347,0.873,0.521,1.5,0.521c0.613,0,1.1-0.174,1.46-0.521c0.373-0.36,0.56-0.854,0.56-1.479
		V25.025z M48.145,20.105v10.62h-2.681v-2.279h-3.72c-0.427,0.547-0.974,0.967-1.64,1.26c-0.667,0.294-1.414,0.439-2.24,0.439
		c-0.946,0-1.787-0.187-2.52-0.56c-0.733-0.373-1.308-0.907-1.721-1.601c-0.399-0.707-0.6-1.533-0.6-2.479s0.2-1.769,0.6-2.461
		c0.413-0.692,0.987-1.228,1.721-1.601c0.732-0.373,1.573-0.56,2.52-0.56c0.8,0,1.526,0.14,2.18,0.421
		c0.653,0.266,1.193,0.652,1.62,1.159h3.8v-2.36L48.145,20.105L48.145,20.105z M15.665,35.686l-3.16-13.959h3l1.319,6.699
		l0.74,3.881h0.061l0.88-3.881l1.54-6.699h3.319l1.561,6.699l0.859,3.881h0.061l0.74-3.881l1.34-6.699h2.88l-3.24,13.959h-3.46
		l-1.76-7.561l-0.68-3.061h-0.061l-0.7,3.061l-1.76,7.561H15.665z M5.855,35.926c-1.227,0-2.267-0.207-3.12-0.619
		c-0.854-0.428-1.58-0.975-2.18-1.641l2-2.021c0.946,1.067,2.113,1.602,3.5,1.602c0.747,0,1.3-0.154,1.66-0.461
		c0.359-0.307,0.54-0.713,0.54-1.221c0-0.387-0.106-0.705-0.32-0.959c-0.213-0.268-0.646-0.446-1.3-0.541l-1.38-0.18
		c-1.48-0.187-2.566-0.634-3.26-1.341c-0.681-0.706-1.021-1.646-1.021-2.819c0-0.625,0.12-1.199,0.36-1.72
		c0.239-0.521,0.58-0.967,1.02-1.34c0.453-0.374,1-0.66,1.641-0.86c0.653-0.214,1.393-0.32,2.22-0.32c1.053,0,1.979,0.168,2.78,0.5
		c0.8,0.334,1.486,0.82,2.06,1.461l-2.02,2.039c-0.334-0.385-0.74-0.699-1.221-0.939c-0.467-0.253-1.06-0.379-1.779-0.379
		c-0.681,0-1.188,0.119-1.521,0.359s-0.5,0.574-0.5,1c0,0.479,0.127,0.826,0.38,1.039c0.267,0.215,0.693,0.367,1.28,0.461
		l1.38,0.221c1.44,0.227,2.507,0.673,3.2,1.34c0.693,0.652,1.04,1.586,1.04,2.8c0,0.667-0.12,1.28-0.36,1.841
		c-0.24,0.56-0.593,1.039-1.06,1.439c-0.454,0.398-1.021,0.713-1.7,0.939C7.496,35.818,6.723,35.926,5.855,35.926z"/>
	<path fill="#757575" d="M59.081,11.02V6.861h-1.134v4.158h-1.974V6.861h-1.135v4.158h-2.785v0.938h11.354V11.02H59.081z
		 M60.93,3.81c0,1.554,0,3.206-0.435,5.446l1.134,0.14c0.448-2.352,0.448-3.99,0.448-5.586V2.424h-8.848v0.938h7.7L60.93,3.81
		L60.93,3.81z M50.78,4.636h-1.862V1.178h-1.147v7.84h1.147v-3.43h1.862V4.636z M40.771,10.642h7v3.094h1.147V9.704h-8.147V10.642z
		 M45.923,6.33c0-1.372-1.219-2.268-3.011-2.268c-1.777,0-2.996,0.896-2.996,2.268c0,1.386,1.219,2.268,2.996,2.268
		C44.704,8.598,45.923,7.716,45.923,6.33z M41.009,6.33c0-0.826,0.756-1.372,1.903-1.372c1.148,0,1.918,0.546,1.918,1.372
		c0,0.84-0.77,1.386-1.918,1.386C41.765,7.716,41.009,7.169,41.009,6.33z M46.622,2.494h-3.136v-1.4h-1.148v1.4h-3.121v0.924h7.405
		V2.494z M35.857,1.164v5.04h-1.778v-4.76h-1.077v11.648h1.077v-5.95h1.778v6.58h1.106V1.164H35.857z M27.878,3.627h3.542V2.689
		h-4.677v7.938h0.826c1.876,0,3.15-0.056,4.648-0.378l-0.099-0.952c-1.372,0.294-2.562,0.364-4.241,0.378L27.878,3.627L27.878,3.627
		z M23.16,5.014V1.149h-1.147v9.282h1.147V5.966h1.849V5.014H23.16z M16.524,9.55h-1.147v3.892h8.33v-0.938h-7.183V9.55z
		 M20.738,7.478c-1.848-0.658-3.094-2.254-3.094-3.976V1.919h-1.148v1.554c0,1.946-1.218,3.626-3.136,4.312l0.603,0.91
		c1.498-0.56,2.617-1.708,3.136-3.192c0.56,1.316,1.652,2.366,3.066,2.884L20.738,7.478z M11.92,8.611H0.523v0.924H5.62v4.2h1.147
		v-4.2h5.152L11.92,8.611L11.92,8.611z M10.478,1.667H9.33V3.39H3.1V1.667H1.966V7.1h8.512V1.667z M9.33,6.162H3.1V4.313h6.23V6.162
		z"/>
</g>
</svg>
