<svg width="170" height="50" viewBox="0 0 170 50" fill="none" xmlns="http://www.w3.org/2000/svg">
<rect width="170" height="50" fill="white"/>
<path d="M35.4 17.96H43.79V19.01H35.4V17.96ZM38.9 18.49H40.22V21.89H38.9V18.49ZM36.36 12.98H37.68V14.03H41.48V12.98H42.8V17.08H36.36V12.98ZM37.68 15.07V16.02H41.48V15.07H37.68ZM46.6792 13.2H47.7692V14.2C47.7692 16.04 46.9392 17.62 45.1692 18.23L44.4592 17.19C46.0292 16.69 46.6792 15.45 46.6792 14.2V13.2ZM46.9392 13.2H48.0192V14.21C48.0192 15.37 48.6492 16.53 50.1392 17.02L49.4592 18.05C47.7392 17.48 46.9392 15.95 46.9392 14.21V13.2ZM50.5592 12.63H51.8892V19.4H50.5592V12.63ZM51.5092 15.31H53.1192V16.41H51.5092V15.31ZM45.9192 20.67H52.2192V21.73H45.9192V20.67ZM45.9192 18.76H47.2592V21.23H45.9192V18.76ZM60.4884 12.63H61.7484V21.89H60.4884V12.63ZM59.2484 16.19H60.7884V17.26H59.2484V16.19ZM58.4184 12.79H59.6484V21.45H58.4184V12.79ZM54.0584 18.71H54.7084C55.8484 18.71 56.7984 18.67 57.8984 18.47L57.9984 19.55C56.8784 19.77 55.8984 19.8 54.7084 19.8H54.0584V18.71ZM54.0584 13.7H57.4784V14.77H55.3784V19.23H54.0584V13.7ZM62.9977 13.44H68.4477V14.49H62.9977V13.44ZM65.7277 14.78C67.0577 14.78 67.9977 15.47 67.9977 16.49C67.9977 17.51 67.0577 18.19 65.7277 18.19C64.3877 18.19 63.4477 17.51 63.4477 16.49C63.4477 15.47 64.3877 14.78 65.7277 14.78ZM65.7277 15.78C65.1277 15.78 64.7277 16.02 64.7277 16.49C64.7277 16.95 65.1277 17.19 65.7277 17.19C66.3177 17.19 66.7277 16.95 66.7277 16.49C66.7277 16.02 66.3177 15.78 65.7277 15.78ZM68.9577 12.63H70.2877V18.44H68.9577V12.63ZM69.9177 15.02H71.5177V16.1H69.9177V15.02ZM64.1077 18.82H70.2877V21.89H68.9577V19.88H64.1077V18.82ZM65.0577 12.58H66.3877V14.04H65.0577V12.58ZM73.0169 13.41H78.8769V14.48H73.0169V13.41ZM72.2069 19.7H80.5769V20.78H72.2069V19.7ZM73.9569 16.78H75.2769V20.04H73.9569V16.78ZM78.4869 13.41H79.8269V14.32C79.8269 15.44 79.8269 16.72 79.4969 18.6L78.1769 18.47C78.4869 16.71 78.4869 15.41 78.4869 14.32V13.41ZM76.2469 16.78H77.5569V20.04H76.2469V16.78Z" fill="#095DB3"/>
<path d="M38.906 25.746H40.404V25.9C40.404 27.818 39.256 29.386 36.764 29.89L36.022 28.448C38.024 28.084 38.906 27.02 38.906 25.9V25.746ZM39.284 25.746H40.782V25.9C40.782 26.95 41.65 27.916 43.61 28.266L42.882 29.694C40.432 29.232 39.284 27.734 39.284 25.9V25.746ZM36.372 24.57H43.302V25.998H36.372V24.57ZM38.906 23.31H40.782V25.592H38.906V23.31ZM38.892 30.646H40.754V35.854H38.892V30.646ZM44.562 23.282H46.41V36.246H44.562V23.282ZM35.826 31.948L35.602 30.436C37.954 30.436 41.104 30.422 43.82 30.058L43.946 31.402C41.146 31.906 38.136 31.948 35.826 31.948ZM54.9909 26.138H58.2389V27.636H54.9909V26.138ZM52.0229 23.814C53.9689 23.814 55.4389 25.116 55.4389 26.908C55.4389 28.714 53.9689 30.002 52.0229 30.002C50.0629 30.002 48.5929 28.714 48.5929 26.908C48.5929 25.116 50.0629 23.814 52.0229 23.814ZM52.0229 25.368C51.0709 25.368 50.3709 25.942 50.3709 26.908C50.3709 27.874 51.0709 28.462 52.0229 28.462C52.9749 28.462 53.6609 27.874 53.6609 26.908C53.6609 25.942 52.9749 25.368 52.0229 25.368ZM57.4269 23.282H59.2889V30.254H57.4269V23.282ZM50.6789 30.814H52.5269V32.046H57.4409V30.814H59.2889V36.106H50.6789V30.814ZM52.5269 33.474V34.622H57.4409V33.474H52.5269ZM68.2618 26.628H71.2858V28.126H68.2618V26.628ZM70.3058 23.296H72.1678V32.746H70.3058V23.296ZM63.6138 34.538H72.4618V36.022H63.6138V34.538ZM63.6138 31.948H65.4758V35.42H63.6138V31.948ZM64.3138 24.99H65.8258V25.802C65.8258 28.238 64.6778 30.492 62.1858 31.318L61.2478 29.834C63.3898 29.134 64.3138 27.44 64.3138 25.802V24.99ZM64.7058 24.99H66.2038V25.802C66.2038 27.314 67.0858 28.924 69.1298 29.61L68.2198 31.066C65.8118 30.268 64.7058 28.112 64.7058 25.802V24.99ZM61.7518 24.164H68.7238V25.634H61.7518V24.164ZM83.8707 25.06H86.1107V26.586H83.8707V25.06ZM83.8707 27.832H86.1107V29.344H83.8707V27.832ZM74.6587 29.204H75.7507C78.2987 29.204 79.8667 29.148 81.6587 28.812L81.8267 30.296C80.0067 30.646 78.3687 30.716 75.7507 30.716H74.6587V29.204ZM74.6447 23.996H80.5667V27.986H76.5067V29.918H74.6587V26.6H78.7327V25.48H74.6447V23.996ZM82.5407 23.296H84.4027V31.164H82.5407V23.296ZM75.7507 31.752H84.4027V36.246H82.5407V33.236H75.7507V31.752ZM87.6216 24.57H93.2076V26.04H87.6216V24.57ZM89.2876 28.28H91.1216V32.676H89.2876V28.28ZM92.4656 24.57H94.2996V25.62C94.2996 26.88 94.2996 28.448 93.9496 30.604L92.1296 30.436C92.4656 28.364 92.4656 26.866 92.4656 25.62V24.57ZM95.4056 23.282H97.2676V36.246H95.4056V23.282ZM96.7216 28.49H99.0036V30.03H96.7216V28.49ZM87.1316 33.628L86.9636 32.13C89.2456 32.13 92.2696 32.088 94.8176 31.766L94.9156 33.124C92.2976 33.572 89.3856 33.628 87.1316 33.628Z" fill="#333333"/>
<g clip-path="url(#clip0_4_116)">
<path d="M29.0819 34.0608L21.2004 34.0579C18.7638 34.0764 18.46 35.7445 18.46 35.7445C17.9607 33.8538 15.6153 34.0579 15.6153 34.0579H7.91055V22.3296H15.3379C17.8112 22.3773 18.4675 24.4077 18.4675 24.4077C19.2763 22.35 21.8305 22.3315 21.8305 22.3315L29.0821 22.3305V34.0608H29.0819ZM21.3283 21.1641C19.1625 21.2345 18.4816 22.5523 18.4816 22.5523C17.7932 21.1711 15.7093 21.1682 15.7093 21.1682H6.78204V35.2195H15.5232C16.7156 35.2195 17.1379 35.8004 17.2789 36.2181H19.6939C20.1133 35.1649 21.3292 35.2265 21.3292 35.2265H30.218V21.1644H21.3283V21.1641Z" fill="#00964F"/>
<path d="M13.9115 27.734H10.6548V31.1386H15.1367V31.1278H15.133V28.9045H16.2681V31.1386H20.7397V28.9045H21.872V31.1337H26.3483V29.9585H23.0991V28.9024H26.3502V25.3711H21.872V27.7313H20.7397V25.3711H19.5134V27.7292H17.4867V25.3711H16.2651V27.7313H15.1357V25.3711H10.6508V26.5433H13.9112V27.734H13.9115ZM13.9124 29.9684H11.8774V28.9035H13.9124V29.9684ZM19.5182 29.9684H17.4897V28.9035H19.5182V29.9684ZM23.0992 26.5415H25.1277V27.7313H23.0992V26.5415Z" fill="#00964F"/>
<path d="M17.825 14.6594L18.9083 14.2876H17.825V14.6594Z" fill="#004F9F"/>
<path d="M15.486 16.2714C15.8848 15.8381 16.2995 15.8936 16.2995 16.0772C16.2995 16.2608 16.0935 16.4833 16.0935 16.4833H13.5244L12.1166 14.377C11.7659 13.8352 11.3154 13.6009 10.5707 13.6009H6.7854V19.9434C9.08656 19.9424 14.7488 19.9376 15.4137 19.9434C17.9631 19.9678 18.4616 21.0951 18.4616 21.0951C18.9958 20.2176 20.0246 19.9473 21.6111 19.9462H30.2149L30.2177 13.6009H26.3781C25.6389 13.6009 25.1884 13.8352 24.8367 14.377H24.8348L23.3979 16.4833H21.2651V14.6083L22.7246 13.1277H21.219L21.5989 12.7822H18.5463C17.9312 12.7822 17.4469 13.0418 17.2721 13.4039H16.1972C15.209 13.4039 14.8487 13.9817 15.0499 14.7421L15.4863 16.2715L15.486 16.2714ZM29.0815 18.7778H21.894C19.9783 18.7778 19.084 18.9127 18.4737 19.5997C17.8182 18.9398 17.3067 18.7808 15.3892 18.7808H7.91297V14.7732H10.263C10.4953 14.7673 10.689 14.8239 10.816 14.8931C10.91 14.9478 11.0794 15.0679 11.2034 15.2425C11.3604 15.468 12.7523 17.5851 12.7523 17.5851H16.7697C16.7697 17.5851 17.1431 16.7828 17.3724 16.2234C17.6075 15.6583 17.5258 15.2611 17.0292 15.2229C16.6097 15.1888 16.3474 15.2932 16.3032 15.4708L16.1245 14.8394C16.0173 14.5182 16.0935 14.2849 16.5241 14.2849H17.8246C17.8246 14.2986 17.8509 13.8476 18.5667 13.8476H20.7118L20.1072 14.4264V17.5848H24.2704C24.2704 17.5848 25.5955 15.4678 25.7506 15.2423C25.8719 15.0676 26.0422 14.9474 26.1382 14.8928C26.2632 14.8236 26.4589 14.766 26.6902 14.7611L29.0817 14.7622V18.7776L29.0815 18.7778Z" fill="#004F9F"/>
<path d="M16.6984 32.3852C16.8545 32.3296 16.9908 32.2145 17.0699 32.0748H17.0764V33.0761C17.0764 33.1777 17.068 33.2587 17.1611 33.3213V33.3281H16.8009V33.3213C16.9082 33.2685 16.8988 33.1846 16.8988 33.0761V32.3899H16.6986V32.3851L16.6984 32.3852Z" fill="#00964F"/>
<path d="M17.584 33.2519C17.8642 33.1934 18.1153 32.9318 18.1153 32.6351C18.1153 32.4555 18.0165 32.2544 17.8162 32.2544C17.6686 32.2544 17.5642 32.3745 17.5642 32.522C17.5642 32.6869 17.6686 32.8128 17.8276 32.8128C17.8916 32.8128 17.9564 32.7942 18.011 32.7571L17.8944 32.9054C17.8503 32.9221 17.8004 32.9298 17.7525 32.9298C17.5502 32.9298 17.3914 32.7727 17.3914 32.5637C17.3914 32.3011 17.5955 32.1285 17.8399 32.1285C18.1117 32.1285 18.2895 32.3491 18.2895 32.6165C18.2895 32.8185 18.1841 33.0176 18.03 33.1435C17.8728 33.2725 17.6952 33.3368 17.4995 33.3622L17.5842 33.2519H17.584Z" fill="#00964F"/>
<path d="M18.956 32.9438C18.8046 32.9438 18.6813 32.9369 18.5873 32.931L18.956 32.2867V32.9437V32.9438ZM18.956 33.0852V33.1311C18.956 33.2229 18.9663 33.2863 18.8713 33.3214V33.3282H19.207V33.3214C19.1308 33.2832 19.128 33.1994 19.128 33.1214V33.0852H19.2662L19.349 32.8704C19.2887 32.9232 19.2089 32.9437 19.128 32.9437V32.1569H18.8891L18.3521 33.085H18.9558L18.956 33.0852Z" fill="#00964F"/>
<path d="M20.1779 32.2362C20.0622 32.2529 19.924 32.3455 19.8393 32.4256C19.7218 32.5388 19.6512 32.6891 19.6512 32.8571C19.6512 33.0405 19.7528 33.2375 19.955 33.2375C20.1074 33.2375 20.1957 33.1185 20.1957 32.9662C20.1957 32.7916 20.1063 32.6714 19.9296 32.6714C19.8629 32.6714 19.798 32.6919 19.7387 32.73L19.8506 32.5855C19.8957 32.564 19.9475 32.5514 20.0019 32.5514C20.2173 32.5514 20.3715 32.7034 20.3715 32.927C20.3715 33.1797 20.1768 33.3555 19.9361 33.3555C19.6651 33.3555 19.4771 33.131 19.4771 32.8596C19.4771 32.4351 19.89 32.1587 20.2615 32.1256L20.1777 32.2358L20.1779 32.2362Z" fill="#00964F"/>
</g>
<defs>
<clipPath id="clip0_4_116">
<rect width="25" height="25" fill="white" transform="translate(6 12)"/>
</clipPath>
</defs>
</svg>
