<svg width="157" height="203" viewBox="0 0 157 203" fill="none" xmlns="http://www.w3.org/2000/svg">
<g clip-path="url(#clip0_304_1709)">
<path fill-rule="evenodd" clip-rule="evenodd" d="M92.4028 0L92.353 0.049439L152.382 59.7553V133.19H133.912V59.7059H110.824C100.622 59.7059 92.353 51.4809 92.353 41.3348V18.371H34.1706C28.05 18.371 23.0883 23.3061 23.0883 29.3937V133.19H4.61768V19.2896C4.61768 8.63625 13.3007 0 24.0118 0H92.353H92.4028Z" fill="#FF2626"/>
<path d="M20.8125 187V141.75H38.5625C48.875 141.75 54.75 148.062 54.75 157C54.75 166.062 48.75 172.25 38.3125 172.25H30.1875V187H20.8125ZM30.1875 164.688H36.8125C42.375 164.688 45.0625 161.562 45.0625 157C45.0625 152.5 42.375 149.438 36.8125 149.438H30.1875V164.688ZM76.625 187H60.6875V141.75H76.8125C90.4375 141.75 98.75 150.25 98.75 164.312C98.75 178.5 90.4375 187 76.625 187ZM70.0625 178.938H76.25C84.875 178.938 89.375 174.438 89.375 164.312C89.375 154.25 84.875 149.812 76.3125 149.812H70.0625V178.938ZM105.562 187V141.75H135.375V149.5H114.938V160.5H133.438V168.25H114.938V187H105.562Z" fill="#FF2626"/>
</g>
<defs>
<clipPath id="clip0_304_1709">
<rect width="157" height="203" fill="white"/>
</clipPath>
</defs>
</svg>
