<svg width="170" height="221" viewBox="0 0 170 221" fill="none" xmlns="http://www.w3.org/2000/svg">
<path fill-rule="evenodd" clip-rule="evenodd" d="M100.054 0L100 0.0538228L165 65.0538V145H145V65H120C108.954 65 100 56.0457 100 45V20H37C30.3726 20 25 25.3726 25 32V145H5V21C5 9.40202 14.402 0 26 0H100H100.054Z" fill="#22C55E"/>
<path d="M44.676 203H32.708L22.44 185.524H22.236L12.24 203H1.088L16.32 178.452L1.836 155.536H13.872L23.12 171.584H23.324L32.708 155.536H43.86L29.24 178.656L44.676 203ZM50.9899 203V155.536H61.3259V193.82H79.4139V203H50.9899ZM102.417 203.816C98.2458 203.816 94.7098 203.113 91.8085 201.708C88.9072 200.257 86.4365 198.399 84.3965 196.132L91.1965 189.264C94.4152 192.891 98.3818 194.704 103.097 194.704C105.635 194.704 107.517 194.183 108.741 193.14C109.965 192.097 110.577 190.715 110.577 188.992C110.577 187.677 110.214 186.589 109.489 185.728C108.763 184.821 107.29 184.209 105.069 183.892L100.377 183.28C95.3445 182.645 91.6498 181.127 89.2925 178.724C86.9805 176.321 85.8245 173.125 85.8245 169.136C85.8245 167.005 86.2325 165.056 87.0485 163.288C87.8645 161.52 89.0205 160.001 90.5165 158.732C92.0578 157.463 93.9165 156.488 96.0925 155.808C98.3138 155.083 100.83 154.72 103.641 154.72C107.222 154.72 110.373 155.287 113.093 156.42C115.813 157.553 118.147 159.208 120.097 161.384L113.229 168.32C112.095 167.005 110.713 165.94 109.081 165.124C107.494 164.263 105.477 163.832 103.029 163.832C100.717 163.832 98.9938 164.24 97.8605 165.056C96.7272 165.872 96.1605 167.005 96.1605 168.456C96.1605 170.088 96.5912 171.267 97.4525 171.992C98.3592 172.717 99.8098 173.239 101.804 173.556L106.497 174.304C111.393 175.075 115.019 176.593 117.377 178.86C119.734 181.081 120.913 184.255 120.913 188.38C120.913 190.647 120.505 192.732 119.689 194.636C118.873 196.54 117.671 198.172 116.085 199.532C114.543 200.892 112.617 201.957 110.305 202.728C107.993 203.453 105.363 203.816 102.417 203.816ZM168.922 203H156.954L146.686 185.524H146.482L136.486 203H125.334L140.566 178.452L126.082 155.536H138.118L147.366 171.584H147.57L156.954 155.536H168.106L153.486 178.656L168.922 203Z" fill="#22C55E"/>
</svg>
